HIERARCHY
ROOT Hips
{
	OFFSET 0.000000 94.000000 0.000011
	CHANNELS 6 Xposition Yposition Zposition Yrotation Xrotation Zrotation
	JOINT Spine
	{
		OFFSET 0.000000 12.994698 0.000002
		CHANNELS 6 Xposition Yposition Zposition Yrotation Xrotation Zrotation
		JOINT Spine1
		{
			OFFSET 0.000000 12.709900 0.000002
			CHANNELS 6 Xposition Yposition Zposition Yrotation Xrotation Zrotation
			JOINT Spine2
			{
				OFFSET 0.000000 12.782906 0.000002
				CHANNELS 6 Xposition Yposition Zposition Yrotation Xrotation Zrotation
				JOINT LeftShoulder
				{
					OFFSET 7.040100 10.435104 1.914701
					CHANNELS 6 Xposition Yposition Zposition Yrotation Xrotation Zrotation
					JOINT LeftArm
					{
						OFFSET 0.000000 13.459900 0.000002
						CHANNELS 6 Xposition Yposition Zposition Yrotation Xrotation Zrotation
						JOINT LeftForeArm
						{
							OFFSET -0.000100 26.100006 0.000003
							CHANNELS 6 Xposition Yposition Zposition Yrotation Xrotation Zrotation
							JOINT LeftHand
							{
								OFFSET 0.000000 28.900101 0.000003
								CHANNELS 6 Xposition Yposition Zposition Yrotation Xrotation Zrotation
								JOINT LeftHandIndex1
								{
									OFFSET -2.561200 8.073898 0.103001
									CHANNELS 6 Xposition Yposition Zposition Yrotation Xrotation Zrotation
									JOINT LeftHandIndex2
									{
										OFFSET 0.000000 4.580505 0.000000
										CHANNELS 6 Xposition Yposition Zposition Yrotation Xrotation Zrotation
										JOINT LeftHandIndex3
										{
											OFFSET 0.000000 2.817993 0.000000
											CHANNELS 6 Xposition Yposition Zposition Yrotation Xrotation Zrotation
											End Site
											{
												OFFSET 0.000000 1.356598 0.000000
											}
										}
									}
								}
								JOINT LeftHandMiddle1
								{
									OFFSET -0.545000 8.136505 0.103001
									CHANNELS 6 Xposition Yposition Zposition Yrotation Xrotation Zrotation
									JOINT LeftHandMiddle2
									{
										OFFSET 0.000000 4.702408 0.000000
										CHANNELS 6 Xposition Yposition Zposition Yrotation Xrotation Zrotation
										JOINT LeftHandMiddle3
										{
											OFFSET 0.000000 3.101593 0.000000
											CHANNELS 6 Xposition Yposition Zposition Yrotation Xrotation Zrotation
											End Site
											{
												OFFSET 0.000000 1.499100 0.000000
											}
										}
									}
								}
								JOINT LeftHandPinky1
								{
									OFFSET 3.136800 7.018097 0.103101
									CHANNELS 6 Xposition Yposition Zposition Yrotation Xrotation Zrotation
									JOINT LeftHandPinky2
									{
										OFFSET 0.000000 3.554001 0.000000
										CHANNELS 6 Xposition Yposition Zposition Yrotation Xrotation Zrotation
										JOINT LeftHandPinky3
										{
											OFFSET 0.000000 2.233902 0.000000
											CHANNELS 6 Xposition Yposition Zposition Yrotation Xrotation Zrotation
											End Site
											{
												OFFSET 0.000000 1.120499 0.000000
											}
										}
									}
								}
								JOINT LeftHandRing1
								{
									OFFSET 1.440500 7.806702 0.103101
									CHANNELS 6 Xposition Yposition Zposition Yrotation Xrotation Zrotation
									JOINT LeftHandRing2
									{
										OFFSET 0.000000 4.392197 0.000000
										CHANNELS 6 Xposition Yposition Zposition Yrotation Xrotation Zrotation
										JOINT LeftHandRing3
										{
											OFFSET 0.000000 2.832703 0.000000
											CHANNELS 6 Xposition Yposition Zposition Yrotation Xrotation Zrotation
											End Site
											{
												OFFSET 0.000000 1.350006 0.000000
											}
										}
									}
								}
								JOINT LeftHandThumb1
								{
									OFFSET -2.786300 2.078995 0.094600
									CHANNELS 6 Xposition Yposition Zposition Yrotation Xrotation Zrotation
									JOINT LeftHandThumb2
									{
										OFFSET 0.000000 3.961899 0.000000
										CHANNELS 6 Xposition Yposition Zposition Yrotation Xrotation Zrotation
										JOINT LeftHandThumb3
										{
											OFFSET 0.000000 3.007095 0.000000
											CHANNELS 6 Xposition Yposition Zposition Yrotation Xrotation Zrotation
											End Site
											{
												OFFSET 0.000000 1.729507 0.000000
											}
										}
									}
								}
							}
						}
					}
				}
				JOINT Neck
				{
					OFFSET 0.000000 18.209305 0.000002
					CHANNELS 6 Xposition Yposition Zposition Yrotation Xrotation Zrotation
					JOINT Head
					{
						OFFSET 0.000000 11.033493 0.000001
						CHANNELS 6 Xposition Yposition Zposition Yrotation Xrotation Zrotation
						End Site
						{
							OFFSET 0.000000 8.022003 0.000001
						}
					}
				}
				JOINT RightShoulder
				{
					OFFSET -7.040100 10.435104 1.914701
					CHANNELS 6 Xposition Yposition Zposition Yrotation Xrotation Zrotation
					JOINT RightArm
					{
						OFFSET 0.000000 13.459900 0.000002
						CHANNELS 6 Xposition Yposition Zposition Yrotation Xrotation Zrotation
						JOINT RightForeArm
						{
							OFFSET 0.000000 26.100098 0.000003
							CHANNELS 6 Xposition Yposition Zposition Yrotation Xrotation Zrotation
							JOINT RightHand
							{
								OFFSET -0.000100 28.900101 -0.000097
								CHANNELS 6 Xposition Yposition Zposition Yrotation Xrotation Zrotation
								JOINT RightHandIndex1
								{
									OFFSET 2.561100 8.074005 0.103001
									CHANNELS 6 Xposition Yposition Zposition Yrotation Xrotation Zrotation
									JOINT RightHandIndex2
									{
										OFFSET 0.000000 4.580505 -0.000099
										CHANNELS 6 Xposition Yposition Zposition Yrotation Xrotation Zrotation
										JOINT RightHandIndex3
										{
											OFFSET 0.000000 2.817993 0.000000
											CHANNELS 6 Xposition Yposition Zposition Yrotation Xrotation Zrotation
											End Site
											{
												OFFSET 0.000000 1.356598 0.000000
											}
										}
									}
								}
								JOINT RightHandMiddle1
								{
									OFFSET 0.545000 8.136597 0.103001
									CHANNELS 6 Xposition Yposition Zposition Yrotation Xrotation Zrotation
									JOINT RightHandMiddle2
									{
										OFFSET 0.000000 4.702408 -0.000099
										CHANNELS 6 Xposition Yposition Zposition Yrotation Xrotation Zrotation
										JOINT RightHandMiddle3
										{
											OFFSET 0.000000 3.101593 0.000000
											CHANNELS 6 Xposition Yposition Zposition Yrotation Xrotation Zrotation
											End Site
											{
												OFFSET 0.000000 1.499100 0.000000
											}
										}
									}
								}
								JOINT RightHandPinky1
								{
									OFFSET -3.136800 7.018097 0.103001
									CHANNELS 6 Xposition Yposition Zposition Yrotation Xrotation Zrotation
									JOINT RightHandPinky2
									{
										OFFSET 0.000000 3.554092 -0.000099
										CHANNELS 6 Xposition Yposition Zposition Yrotation Xrotation Zrotation
										JOINT RightHandPinky3
										{
											OFFSET 0.000000 2.233994 0.000000
											CHANNELS 6 Xposition Yposition Zposition Yrotation Xrotation Zrotation
											End Site
											{
												OFFSET 0.000000 1.120499 0.000000
											}
										}
									}
								}
								JOINT RightHandRing1
								{
									OFFSET -1.440500 7.806793 0.103001
									CHANNELS 6 Xposition Yposition Zposition Yrotation Xrotation Zrotation
									JOINT RightHandRing2
									{
										OFFSET 0.000000 4.392303 -0.000099
										CHANNELS 6 Xposition Yposition Zposition Yrotation Xrotation Zrotation
										JOINT RightHandRing3
										{
											OFFSET 0.000000 2.832703 0.000000
											CHANNELS 6 Xposition Yposition Zposition Yrotation Xrotation Zrotation
											End Site
											{
												OFFSET 0.000000 1.350006 0.000000
											}
										}
									}
								}
								JOINT RightHandThumb1
								{
									OFFSET 2.786300 2.079102 0.094500
									CHANNELS 6 Xposition Yposition Zposition Yrotation Xrotation Zrotation
									JOINT RightHandThumb2
									{
										OFFSET 0.000000 3.962006 -0.000099
										CHANNELS 6 Xposition Yposition Zposition Yrotation Xrotation Zrotation
										JOINT RightHandThumb3
										{
											OFFSET 0.000000 3.007202 -0.000099
											CHANNELS 6 Xposition Yposition Zposition Yrotation Xrotation Zrotation
											End Site
											{
												OFFSET 0.000000 1.729507 0.000000
											}
										}
									}
								}
							}
						}
					}
				}
			}
		}
	}
	JOINT LeftUpLeg
	{
		OFFSET 8.100000 0.000000 0.000000
		CHANNELS 6 Xposition Yposition Zposition Yrotation Xrotation Zrotation
		JOINT LeftLeg
		{
			OFFSET 0.000000 43.199997 0.000005
			CHANNELS 6 Xposition Yposition Zposition Yrotation Xrotation Zrotation
			JOINT LeftFoot
			{
				OFFSET 0.000000 43.300003 0.000005
				CHANNELS 6 Xposition Yposition Zposition Yrotation Xrotation Zrotation
				JOINT LeftToeBase
				{
					OFFSET 0.000000 14.572693 0.000002
					CHANNELS 6 Xposition Yposition Zposition Yrotation Xrotation Zrotation
					End Site
					{
						OFFSET 0.000000 3.500000 0.000000
					}
				}
			}
		}
	}
	JOINT RightUpLeg
	{
		OFFSET -8.100000 0.000000 0.000000
		CHANNELS 6 Xposition Yposition Zposition Yrotation Xrotation Zrotation
		JOINT RightLeg
		{
			OFFSET 0.000000 43.199997 0.000005
			CHANNELS 6 Xposition Yposition Zposition Yrotation Xrotation Zrotation
			JOINT RightFoot
			{
				OFFSET 0.000000 43.300003 0.000005
				CHANNELS 6 Xposition Yposition Zposition Yrotation Xrotation Zrotation
				JOINT RightToeBase
				{
					OFFSET 0.000000 14.572693 0.000002
					CHANNELS 6 Xposition Yposition Zposition Yrotation Xrotation Zrotation
					End Site
					{
						OFFSET 0.000000 3.500000 0.000000
					}
				}
			}
		}
	}
}
MOTION
Frames: 4
Frame Time: 0.010000
-5.886300 96.353996 0.090711 6.531794 -5.293443 2.358516 0.000000 12.994713 0.000003 -0.000000 -0.000001 0.000000 -0.000001 12.709915 0.000003 -0.000000 -0.000001 0.000000 -0.000000 12.782906 0.000003 -15.239800 -0.000001 -0.000001 7.040100 10.435104 1.914702 0.000000 89.999989 -90.000003 0.000002 13.459906 0.000033 -91.308291 5.319091 -59.792104 -0.000100 26.100018 0.000001 -0.000006 0.000002 38.045086 -0.000013 28.900085 0.000001 -0.000001 0.000001 -0.000002 -2.561194 8.073924 0.103003 4.455600 17.500801 8.688302 -0.000005 4.580514 -0.000003 -0.000001 17.999989 0.000001 0.000000 2.818016 -0.000008 0.000001 17.998691 -0.000801 -0.544990 8.136527 0.103002 0.000002 17.999596 5.400099 -0.000010 4.702408 0.000014 -0.000001 18.000094 0.000101 0.000001 3.101597 0.000012 0.000100 17.999994 0.000101 3.136813 7.018136 0.103115 -22.769093 18.002389 -13.293801 0.000002 3.554018 -0.000022 -0.000300 17.999394 0.000301 -0.000003 2.233917 -0.000019 -0.000099 18.000392 -0.000600 1.440506 7.806712 0.103100 -11.405897 19.284899 -1.936602 0.000004 4.392205 -0.000000 -0.000005 17.999990 0.000002 0.000002 2.832715 -0.000009 0.000001 17.998991 -0.000098 -2.786297 2.079016 0.094603 59.081293 -12.433405 28.170799 0.000010 3.961917 -0.000011 -0.354597 6.351298 -6.389999 0.000004 3.007104 0.000002 -0.355001 6.350897 -6.390099 -0.000001 18.209305 0.000004 0.000001 -0.000000 0.000000 -0.000002 11.033469 0.000000 8.167701 -19.412202 -6.845999 -7.040099 10.435118 1.914703 0.000000 89.999989 89.999886 0.000001 13.459903 -0.000002 99.002096 53.195692 80.345598 -0.000012 26.100094 0.000000 -0.000093 0.000004 -60.983795 -0.000107 28.900070 -0.000094 0.000001 -0.000004 -0.000002 2.561112 8.074017 0.103007 -4.455799 17.500700 -8.688101 -0.000003 4.580499 -0.000087 -0.000001 17.999990 -0.000000 0.000005 2.817977 -0.000009 -0.000001 17.999391 0.000200 0.545007 8.136620 0.103001 -0.000100 17.999900 -5.399897 -0.000003 4.702432 -0.000087 0.000000 17.999989 -0.000000 -0.000004 3.101617 0.000020 -0.000001 17.999989 0.000000 -3.136799 7.018118 0.103007 22.769300 18.002596 13.293899 -0.000006 3.554106 -0.000104 -0.000002 17.998896 0.000100 0.000011 2.233992 0.000002 -0.000003 17.999294 0.000200 -1.440486 7.806788 0.103003 11.405698 19.284896 1.936702 0.000003 4.392313 -0.000095 -0.000002 17.999994 -0.000001 0.000004 2.832723 -0.000009 0.000001 17.999193 -0.000001 2.786307 2.079097 0.094498 -59.081293 -12.433299 -28.170398 -0.000007 3.962020 -0.000096 0.354796 6.350598 6.389695 0.000008 3.007184 -0.000096 0.354899 6.350796 6.390197 8.100000 0.000010 0.000000 6.076301 6.392112 -176.081894 0.000001 43.199982 0.000005 0.010399 -0.000000 0.000000 -0.000000 43.299992 0.000025 -2.455697 60.989293 -2.948198 0.000002 14.572708 0.000012 -0.000000 25.149395 0.957598 -8.100000 0.000000 0.000000 -9.854802 5.787511 176.690082 -0.000001 43.200012 0.000005 -0.007500 0.000000 0.000100 0.000002 43.300011 0.000013 0.514600 62.089493 0.595300 -0.000001 14.572693 -0.000002 0.000000 30.790797 -0.000100 
-5.868500 96.359703 0.049511 6.571835 -5.282373 2.374347 0.000000 12.994698 0.000001 -0.000000 0.000000 0.000000 -0.000000 12.709908 0.000001 -0.000000 0.000000 0.000000 -0.000000 12.782906 0.000002 -15.283201 -0.000001 -0.000002 7.040101 10.435088 1.914700 0.000000 89.999989 -89.999996 -0.000000 13.459900 0.000047 -91.420894 4.599994 -60.290107 -0.000102 26.100046 0.000003 -0.000004 0.000002 38.412287 -0.000002 28.900085 0.000003 -0.000000 0.000001 -0.000003 -2.561196 8.073894 0.103003 4.455599 17.500794 8.688299 -0.000001 4.580514 0.000004 0.000000 17.999990 0.000002 0.000007 2.818016 -0.000008 -0.000000 17.998687 -0.000800 -0.545006 8.136527 0.103010 0.000000 17.999589 5.400101 -0.000004 4.702413 0.000004 0.000000 18.000096 -0.000000 -0.000013 3.101612 -0.000004 0.000099 17.999999 0.000101 3.136810 7.018121 0.103108 -22.769091 18.002386 -13.293800 0.000005 3.553990 -0.000003 -0.000300 17.999391 0.000400 0.000001 2.233902 -0.000006 0.000004 18.000393 -0.000602 1.440504 7.806713 0.103100 -11.405896 19.284891 -1.936600 0.000009 4.392220 0.000000 -0.000002 17.999995 -0.000001 0.000006 2.832715 -0.000008 -0.000000 17.998988 -0.000100 -2.786296 2.079016 0.094607 59.081293 -12.433403 28.170796 0.000005 3.961932 -0.000009 -0.354602 6.351296 -6.390001 0.000006 3.007104 0.000000 -0.354999 6.350897 -6.390101 0.000000 18.209305 0.000003 -0.000000 0.000000 -0.000000 0.000001 11.033484 0.000000 8.577099 -19.368596 -6.952398 -7.040098 10.435104 1.914701 0.000000 89.999989 89.999893 0.000003 13.459899 0.000011 99.177393 53.332894 80.446200 0.000002 26.100111 0.000005 0.000007 0.000004 -61.051899 -0.000099 28.900070 -0.000095 -0.000001 -0.000004 0.000000 2.561119 8.074017 0.103007 -4.455799 17.500691 -8.688101 -0.000013 4.580484 -0.000095 -0.000001 17.999994 0.000000 -0.000005 2.817977 -0.000009 0.000001 17.999391 0.000199 0.545007 8.136620 0.103008 -0.000100 17.999891 -5.399899 0.000001 4.702417 -0.000080 -0.000001 17.999989 -0.000000 -0.000007 3.101617 0.000005 0.000003 17.999987 0.000000 -3.136789 7.018118 0.103007 22.769298 18.002594 13.293899 0.000008 3.554106 -0.000096 -0.000000 17.998896 0.000099 0.000012 2.234007 0.000002 -0.000003 17.999294 0.000200 -1.440495 7.806804 0.103002 11.405697 19.284896 1.936701 -0.000000 4.392328 -0.000088 0.000001 17.999994 -0.000001 0.000012 2.832711 -0.000008 0.000003 17.999097 -0.000000 2.786307 2.079097 0.094502 -59.081293 -12.433302 -28.170396 0.000001 3.962005 -0.000091 0.354799 6.350595 6.389694 0.000002 3.007214 -0.000095 0.354898 6.350796 6.390197 8.100000 -0.000001 0.000000 6.114202 6.348013 -176.118996 0.000001 43.199982 0.000005 0.010400 0.000000 0.000000 0.000000 43.299988 0.000002 -2.357000 60.958291 -2.829898 0.000002 14.572720 0.000012 0.000000 25.148796 0.964598 -8.100000 -0.000013 0.000000 -10.034203 5.741113 176.660002 -0.000000 43.199997 0.000005 -0.007500 0.000100 0.000100 -0.000001 43.300003 0.000023 0.426400 62.105203 0.491800 -0.000002 14.572693 0.000006 0.000000 30.696393 -0.000100 
-5.851500 96.365196 -0.001089 6.611787 -5.271500 2.390089 -0.000000 12.994713 0.000002 0.000000 -0.000000 -0.000000 -0.000001 12.709915 0.000001 0.000000 -0.000000 -0.000000 -0.000000 12.782921 0.000002 -15.326596 -0.000000 -0.000002 7.040101 10.435102 1.914703 0.000000 89.999989 -89.999996 -0.000002 13.459908 0.000010 -91.511093 3.892797 -60.783411 -0.000113 26.100023 0.000002 -0.000005 0.000001 38.782292 -0.000003 28.900085 0.000002 0.000000 -0.000000 -0.000001 -2.561189 8.073894 0.103003 4.455598 17.500801 8.688300 0.000010 4.580514 -0.000003 0.000001 17.999989 0.000001 0.000006 2.818016 0.000007 -0.000001 17.998689 -0.000800 -0.544991 8.136527 0.103001 -0.000001 17.999598 5.400099 -0.000002 4.702408 0.000014 -0.000001 18.000098 0.000101 0.000008 3.101612 0.000004 0.000100 17.999999 0.000100 3.136807 7.018121 0.103099 -22.769095 18.002393 -13.293800 -0.000002 3.554034 -0.000007 -0.000303 17.999396 0.000299 -0.000007 2.233902 0.000008 -0.000004 18.000393 -0.000603 1.440506 7.806713 0.103099 -11.405898 19.284899 -1.936599 0.000011 4.392204 0.000001 -0.000003 17.999994 -0.000001 0.000008 2.832699 0.000007 0.000003 17.998993 -0.000100 -2.786304 2.079016 0.094596 59.081293 -12.433404 28.170803 0.000003 3.961917 -0.000003 -0.354599 6.351296 -6.390003 0.000021 3.007104 -0.000009 -0.355005 6.350899 -6.390100 0.000000 18.209305 0.000004 -0.000001 -0.000001 -0.000000 -0.000000 11.033484 0.000000 8.985801 -19.324002 -7.058498 -7.040099 10.435104 1.914703 0.000000 89.999989 89.999893 -0.000003 13.459898 0.000027 99.353093 53.471591 80.547103 -0.000008 26.100109 0.000003 -0.000089 0.000003 -61.119798 -0.000093 28.900085 -0.000098 -0.000001 -0.000003 -0.000002 2.561085 8.074001 0.103000 -4.455796 17.500691 -8.688099 -0.000006 4.580484 -0.000102 -0.000001 17.999992 -0.000000 -0.000010 2.817977 -0.000016 0.000001 17.999391 0.000200 0.544979 8.136589 0.103001 -0.000099 17.999895 -5.399901 0.000005 4.702432 -0.000080 0.000000 17.999987 -0.000000 -0.000002 3.101618 0.000013 -0.000000 17.999987 -0.000001 -3.136814 7.018119 0.103001 22.769298 18.002598 13.293895 0.000014 3.554106 -0.000097 -0.000007 17.998903 0.000100 -0.000008 2.234011 0.000003 -0.000000 17.999195 0.000200 -1.440519 7.806774 0.103003 11.405697 19.284901 1.936698 -0.000003 4.392313 -0.000095 0.000000 17.999994 -0.000001 0.000004 2.832723 -0.000001 0.000002 17.999193 -0.000000 2.786283 2.079082 0.094494 -59.081293 -12.433300 -28.170395 -0.000004 3.962020 -0.000108 0.354798 6.350597 6.389696 -0.000002 3.007199 -0.000107 0.354899 6.350794 6.390196 8.100000 0.000019 0.000001 6.151801 6.297915 -176.156999 -0.000001 43.199997 0.000005 0.010400 -0.000000 0.000000 0.000001 43.299999 0.000018 -2.256198 60.921599 -2.709199 0.000001 14.572716 0.000012 -0.000000 25.148395 0.971599 -8.100000 0.000007 -0.000001 -10.214601 5.688311 176.630891 0.000002 43.199997 0.000005 -0.007600 -0.000000 0.000100 -0.000001 43.299988 0.000024 0.336700 62.114492 0.386600 0.000000 14.572693 0.000006 -0.000000 30.612891 -0.000100 
-5.835400 96.370102 -0.056289 6.652209 -5.263050 2.400108 -0.000000 12.994690 0.000000 -0.000000 0.000000 -0.000000 0.000000 12.709915 0.000002 -0.000000 0.000000 -0.000000 -0.000000 12.782921 0.000002 -15.370900 0.000001 -0.000002 7.040101 10.435088 1.914701 0.000000 89.999989 -89.999996 -0.000000 13.459907 0.000012 -91.505096 3.228694 -61.176802 -0.000118 26.100010 0.000002 -0.000005 0.000002 39.073491 -0.000016 28.900085 0.000002 0.000000 -0.000000 -0.000002 -2.561202 8.073894 0.103003 4.455597 17.500797 8.688299 0.000003 4.580499 -0.000003 -0.000000 17.999985 -0.000000 0.000004 2.818016 -0.000008 -0.000001 17.998689 -0.000800 -0.545005 8.136527 0.103009 -0.000003 17.999594 5.400100 -0.000012 4.702397 0.000018 -0.000001 18.000100 -0.000001 -0.000012 3.101612 -0.000003 0.000101 17.999994 0.000100 3.136798 7.018121 0.103100 -22.769095 18.002389 -13.293799 -0.000009 3.554035 -0.000010 -0.000301 17.999393 0.000398 -0.000002 2.233902 -0.000004 -0.000100 18.000390 -0.000600 1.440497 7.806697 0.103100 -11.405902 19.284896 -1.936599 0.000018 4.392220 0.000000 0.000003 17.999995 -0.000001 0.000016 2.832715 -0.000009 -0.000002 17.998993 -0.000100 -2.786311 2.079000 0.094596 59.081300 -12.433403 28.170799 0.000014 3.961917 -0.000011 -0.354601 6.351296 -6.390002 0.000006 3.007104 0.000004 -0.355000 6.350899 -6.390101 0.000001 18.209290 0.000002 -0.000000 -0.000000 0.000000 0.000003 11.033484 0.000000 9.347203 -19.279303 -7.154201 -7.040099 10.435088 1.914700 0.000000 89.999989 89.999893 0.000003 13.459894 0.000014 99.513397 53.630693 80.631797 0.000004 26.100126 0.000006 0.000008 0.000002 -61.158292 -0.000112 28.900085 -0.000102 0.000001 -0.000002 -0.000001 2.561102 8.074032 0.103000 -4.455799 17.500697 -8.688099 -0.000008 4.580499 -0.000095 0.000000 17.999990 0.000000 0.000002 2.817977 -0.000001 -0.000001 17.999389 0.000200 0.545007 8.136604 0.103008 -0.000101 17.999898 -5.399897 -0.000002 4.702432 -0.000087 0.000001 17.999989 0.000000 -0.000003 3.101618 0.000020 0.000001 17.999985 -0.000000 -3.136797 7.018118 0.103007 22.769298 18.002598 13.293904 0.000001 3.554106 -0.000096 -0.000000 17.998901 0.000100 0.000004 2.234007 0.000009 -0.000002 17.999294 0.000200 -1.440490 7.806804 0.103010 11.405699 19.284897 1.936701 0.000008 4.392313 -0.000102 0.000002 17.999994 0.000000 -0.000003 2.832708 -0.000009 0.000000 17.999193 -0.000000 2.786306 2.079098 0.094494 -59.081300 -12.433299 -28.170400 0.000001 3.962020 -0.000083 0.354799 6.350596 6.389698 -0.000005 3.007184 -0.000107 0.354901 6.350797 6.390199 8.100001 0.000003 -0.000001 6.203401 6.247013 -176.189101 -0.000001 43.199997 0.000005 0.010401 0.000100 -0.000000 0.000001 43.299992 0.000009 -2.146699 60.903991 -2.577199 -0.000001 14.572714 0.000010 -0.000000 25.148396 0.979698 -8.100001 0.000001 -0.000001 -10.393803 5.636111 176.608393 0.000002 43.199982 0.000005 -0.007600 0.000000 0.000100 -0.000000 43.299995 0.000022 0.239900 62.124491 0.272800 -0.000001 14.572708 -0.000002 -0.000000 30.520492 -0.000100 
